<svg xmlns="http://www.w3.org/2000/svg" xmlns:xlink="http://www.w3.org/1999/xlink" width="1152" height="384" viewBox="0 0 1152 384"><defs><style>.a{clip-path:url(#b);}.b,.g{fill:#8c8c8c;}.b{font-size:17px;}.b,.h,.k{font-family:Menlo-Regular, Menlo;}.c{font-size:12px;}.d,.m{fill:none;}.d{stroke:#8c8c8c;}.e{fill:#d4d4d4;}.f{fill:#333;}.h,.k{fill:#555;}.h{font-size:72px;}.i{fill:#707070;}.j{fill:#000977;}.k{font-size:42px;}.l{stroke:none;}.n{fill:#fff;}</style><clipPath id="b"><rect width="1152" height="384"/></clipPath></defs><g id="a" class="a"><rect class="n" width="1152" height="384"/><text class="b" transform="matrix(0.921, -0.391, 0.391, 0.921, 58.382, 109.658)"><tspan x="0" y="0">6502</tspan><tspan class="c"><tspan x="0" y="15">inside</tspan></tspan></text><g class="d" transform="matrix(0.921, -0.391, 0.391, 0.921, 44.53, 93.115)"><rect class="l" width="58.997" height="45.382"/><rect class="m" x="0.5" y="0.5" width="57.997" height="44.382"/></g><g transform="translate(8 32)"><rect class="e" width="320" height="256" transform="translate(32 32)"/><rect class="f" width="64" height="64" transform="translate(248 32)"/><rect class="g" width="64" height="32" transform="translate(248 160)"/><rect class="g" width="64" height="32" transform="translate(248 96)"/><rect class="f" width="64" height="64" transform="translate(248 224)"/></g><text class="h" transform="translate(392 178)"><tspan x="0" y="0">NES Disassembler</tspan><tspan x="0" y="84">written in</tspan><tspan class="i" y="84"> </tspan><tspan class="j" y="84">Lua</tspan></text><text class="k" transform="translate(392 103)"><tspan x="0" y="0">6502</tspan><tspan class="g" y="0">&amp;</tspan></text></g></svg>